<svg width="24" height="24" viewBox="0 0 24 24" fill="none" xmlns="http://www.w3.org/2000/svg">
<path d="M20.9461 7.30545C20.936 6.54807 20.7942 5.79822 20.5271 5.08945C20.2954 4.4916 19.9416 3.94864 19.4883 3.49528C19.0349 3.04191 18.4919 2.6881 17.8941 2.45645C17.1944 2.1938 16.4553 2.05179 15.7081 2.03645C14.7461 1.99345 14.4411 1.98145 11.9991 1.98145C9.55709 1.98145 9.24409 1.98145 8.28909 2.03645C7.54225 2.0519 6.80344 2.19391 6.10409 2.45645C5.50615 2.68793 4.96311 3.04169 4.50973 3.49508C4.05634 3.94847 3.70258 4.4915 3.47109 5.08945C3.20792 5.78858 3.06622 6.52756 3.05209 7.27445C3.00909 8.23745 2.99609 8.54245 2.99609 10.9844C2.99609 13.4264 2.99609 13.7384 3.05209 14.6944C3.06709 15.4424 3.20809 16.1804 3.47109 16.8814C3.70297 17.4792 4.05699 18.022 4.51053 18.4752C4.96407 18.9284 5.50716 19.282 6.10509 19.5134C6.80253 19.7866 7.54147 19.9388 8.29009 19.9634C9.25309 20.0064 9.55809 20.0194 12.0001 20.0194C14.4421 20.0194 14.7551 20.0194 15.7101 19.9634C16.4572 19.9487 17.1965 19.807 17.8961 19.5444C18.4938 19.3125 19.0366 18.9586 19.4899 18.5053C19.9433 18.052 20.2972 17.5091 20.5291 16.9114C20.7921 16.2114 20.9331 15.4734 20.9481 14.7244C20.9911 13.7624 21.0041 13.4574 21.0041 11.0144C21.0021 8.57245 21.0021 8.26245 20.9461 7.30545ZM11.9931 15.6024C9.43909 15.6024 7.37009 13.5334 7.37009 10.9794C7.37009 8.42545 9.43909 6.35645 11.9931 6.35645C13.2192 6.35645 14.3951 6.84351 15.262 7.71049C16.129 8.57747 16.6161 9.75335 16.6161 10.9794C16.6161 12.2055 16.129 13.3814 15.262 14.2484C14.3951 15.1154 13.2192 15.6024 11.9931 15.6024ZM16.8001 7.26344C16.2031 7.26344 15.7221 6.78145 15.7221 6.18545C15.7221 6.04395 15.75 5.90383 15.8041 5.7731C15.8583 5.64238 15.9376 5.52359 16.0377 5.42354C16.1377 5.32348 16.2565 5.24411 16.3873 5.18997C16.518 5.13582 16.6581 5.10795 16.7996 5.10795C16.9411 5.10795 17.0812 5.13582 17.2119 5.18997C17.3427 5.24411 17.4614 5.32348 17.5615 5.42354C17.6616 5.52359 17.7409 5.64238 17.7951 5.7731C17.8492 5.90383 17.8771 6.04395 17.8771 6.18545C17.8771 6.78145 17.3951 7.26344 16.8001 7.26344Z" fill="white"/>
<path d="M11.9932 13.9826C13.6517 13.9826 14.9962 12.6381 14.9962 10.9796C14.9962 9.32105 13.6517 7.97656 11.9932 7.97656C10.3347 7.97656 8.99023 9.32105 8.99023 10.9796C8.99023 12.6381 10.3347 13.9826 11.9932 13.9826Z" fill="white"/>
</svg>
